<svg id="visual" viewBox="0 0 900 600" width="900" height="600" xmlns="http://www.w3.org/2000/svg" xmlns:xlink="http://www.w3.org/1999/xlink" version="1.1"><rect x="0" y="0" width="900" height="600" fill="#DDD383"></rect><path d="M0 321L18.8 302.7C37.7 284.3 75.3 247.7 112.8 234.7C150.3 221.7 187.7 232.3 225.2 246.7C262.7 261 300.3 279 337.8 283.8C375.3 288.7 412.7 280.3 450.2 287.2C487.7 294 525.3 316 562.8 299.8C600.3 283.7 637.7 229.3 675.2 233C712.7 236.7 750.3 298.3 787.8 314.5C825.3 330.7 862.7 301.3 881.3 286.7L900 272L900 601L881.3 601C862.7 601 825.3 601 787.8 601C750.3 601 712.7 601 675.2 601C637.7 601 600.3 601 562.8 601C525.3 601 487.7 601 450.2 601C412.7 601 375.3 601 337.8 601C300.3 601 262.7 601 225.2 601C187.7 601 150.3 601 112.8 601C75.3 601 37.7 601 18.8 601L0 601Z" fill="#FFF" stroke-linecap="round" stroke-linejoin="miter"></path></svg>