<svg id="visual" viewBox="0 0 900 600" width="900" height="600" xmlns="http://www.w3.org/2000/svg" xmlns:xlink="http://www.w3.org/1999/xlink" version="1.1"><rect x="0" y="0" width="900" height="600" fill="#DDD383"></rect><path d="M0 277L18.8 295.3C37.7 313.7 75.3 350.3 112.8 363.3C150.3 376.3 187.7 365.7 225.2 351.3C262.7 337 300.3 319 337.8 314.2C375.3 309.3 412.7 317.7 450.2 310.8C487.7 304 525.3 282 562.8 298.2C600.3 314.3 637.7 368.7 675.2 365C712.7 361.3 750.3 299.7 787.8 283.5C825.3 267.3 862.7 296.7 881.3 311.3L900 326L900 0L881.3 0C862.7 0 825.3 0 787.8 0C750.3 0 712.7 0 675.2 0C637.7 0 600.3 0 562.8 0C525.3 0 487.7 0 450.2 0C412.7 0 375.3 0 337.8 0C300.3 0 262.7 0 225.2 0C187.7 0 150.3 0 112.8 0C75.3 0 37.7 0 18.8 0L0 0Z" fill="#FFF" stroke-linecap="round" stroke-linejoin="miter"></path></svg>